<svg xmlns="http://www.w3.org/2000/svg" xmlns:xlink="http://www.w3.org/1999/xlink" width="800" zoomAndPan="magnify" viewBox="0 0 600 449.999984" height="600" preserveAspectRatio="xMidYMid meet" version="1.0"><defs><g/></defs><g fill="#878d97" fill-opacity="1"><g transform="translate(1.335948, 348.749673)"><g><path d="M 213.519531 -231.539062 C 210.117188 -235.957031 206.039062 -239.699219 199.917969 -241.058594 C 194.136719 -242.417969 188.359375 -243.4375 182.238281 -243.777344 C 165.917969 -245.476562 149.257812 -245.136719 133.277344 -244.117188 C 115.257812 -243.097656 98.9375 -239.019531 81.597656 -234.9375 C 72.757812 -232.898438 64.257812 -230.179688 55.757812 -227.117188 C 45.898438 -223.378906 36.039062 -218.617188 26.179688 -213.859375 C 17.339844 -209.777344 16.660156 -207.738281 20.398438 -198.558594 C 21.078125 -196.859375 21.417969 -194.820312 22.101562 -193.117188 C 23.460938 -190.058594 26.859375 -188.699219 29.578125 -191.078125 C 36.71875 -198.21875 45.898438 -201.617188 54.398438 -206.039062 C 65.28125 -211.820312 77.519531 -214.878906 89.417969 -217.9375 C 98.597656 -220.320312 87.039062 -200.9375 85.679688 -197.878906 C 81.257812 -189.378906 77.179688 -180.878906 72.417969 -172.71875 C 63.578125 -155.71875 54.058594 -139.058594 44.539062 -122.738281 C 37.738281 -111.519531 30.601562 -100.300781 24.480469 -88.738281 C 19.039062 -77.519531 14.621094 -65.621094 9.519531 -54.398438 C 8.160156 -51.339844 6.800781 -48.28125 6.800781 -44.878906 C 6.460938 -39.441406 10.539062 -33.660156 15.980469 -31.621094 L 18.359375 -31.28125 C 20.398438 -31.621094 21.417969 -33.660156 22.101562 -35.019531 C 26.179688 -43.519531 28.21875 -52.699219 31.28125 -61.878906 C 34.339844 -70.71875 38.757812 -79.21875 42.839844 -87.71875 C 43.519531 -89.417969 44.878906 -91.121094 46.578125 -91.460938 C 53.71875 -94.519531 60.859375 -97.917969 68.339844 -99.960938 C 82.621094 -104.039062 97.238281 -108.460938 112.199219 -104.378906 L 113.558594 -104.378906 C 116.960938 -104.378906 119.339844 -106.417969 118.660156 -109.820312 C 117.640625 -116.277344 114.578125 -121.039062 108.121094 -123.078125 C 99.277344 -125.460938 90.4375 -124.777344 81.597656 -123.417969 L 67.320312 -121.378906 C 63.917969 -121.039062 62.558594 -123.417969 63.917969 -126.480469 L 64.597656 -128.519531 C 73.097656 -142.800781 81.257812 -157.078125 89.757812 -171.019531 C 95.878906 -180.878906 102.679688 -190.398438 109.140625 -199.917969 C 111.179688 -202.976562 115.597656 -207.738281 114.917969 -211.476562 C 114.917969 -213.179688 108.800781 -221.339844 106.757812 -219.976562 C 109.820312 -222.699219 114.578125 -223.71875 118.320312 -224.058594 C 134.300781 -225.417969 150.277344 -227.796875 166.257812 -228.136719 C 176.117188 -228.136719 186.320312 -226.097656 196.179688 -224.738281 C 199.917969 -224.058594 200.597656 -220.660156 198.21875 -217.9375 C 195.839844 -215.558594 193.117188 -213.519531 190.738281 -211.136719 C 184.957031 -204.679688 185.636719 -203.320312 193.457031 -201.617188 C 195.5 -200.9375 198.21875 -200.9375 199.917969 -201.957031 C 204 -204.339844 208.417969 -207.058594 211.820312 -210.457031 C 217.9375 -215.898438 218.617188 -224.738281 213.519531 -231.539062 Z M 213.519531 -231.539062 "/></g></g></g><g fill="#878d97" fill-opacity="1"><g transform="translate(157.054529, 348.749673)"><g><path d="M 64.257812 -157.078125 L 75.480469 -173.398438 C 78.539062 -178.160156 82.621094 -182.238281 87.71875 -184.617188 C 98.257812 -190.058594 98.597656 -192.097656 89.757812 -200.257812 C 86.019531 -203.320312 83.640625 -204 79.558594 -201.617188 C 77.519531 -200.597656 75.140625 -198.898438 73.441406 -196.859375 C 68 -189.039062 62.898438 -180.878906 57.460938 -173.058594 C 56.78125 -171.699219 56.097656 -170.339844 55.757812 -168.640625 C 55.417969 -164.558594 54.738281 -160.480469 57.800781 -157.078125 C 59.839844 -154.359375 62.21875 -154.019531 64.257812 -157.078125 Z M 8.160156 -38.417969 C 10.539062 -39.101562 13.261719 -40.121094 15.300781 -41.820312 C 23.121094 -47.257812 30.941406 -53.039062 38.757812 -58.820312 C 51.339844 -67.320312 85.339844 -91.460938 87.039062 -92.820312 C 91.800781 -96.558594 95.539062 -104.378906 90.4375 -107.097656 C 89.078125 -108.121094 85 -105.398438 82.621094 -104.039062 C 81.597656 -103.359375 48.960938 -81.597656 33.320312 -71.738281 C 25.839844 -66.640625 18.019531 -61.878906 10.539062 -57.121094 C 5.101562 -54.058594 5.78125 -60.179688 6.460938 -63.238281 C 7.480469 -66.980469 9.179688 -70.378906 10.878906 -73.78125 C 14.621094 -80.238281 19.039062 -86.019531 22.78125 -92.480469 C 28.898438 -102 36.039062 -112.199219 44.199219 -120.359375 C 45.558594 -121.71875 53.378906 -126.480469 53.378906 -128.179688 C 53.378906 -132.257812 43.179688 -133.617188 39.78125 -132.9375 C 30.941406 -131.917969 20.058594 -111.519531 15.300781 -104.71875 C 6.800781 -93.160156 -1.019531 -80.578125 -7.820312 -68 C -14.28125 -56.441406 -7.820312 -33.320312 8.160156 -38.417969 Z M 8.160156 -38.417969 "/></g></g></g><g fill="#878d97" fill-opacity="1"><g transform="translate(225.733883, 348.749673)"><g><path d="M 2.039062 -38.078125 C 8.160156 -36.378906 12.578125 -39.441406 17 -43.519531 L 17.679688 -44.539062 C 25.839844 -54.058594 35.019531 -63.238281 42.160156 -73.441406 C 48.621094 -83.300781 55.078125 -93.5 57.800781 -105.398438 C 60.179688 -118.320312 59.160156 -118.320312 70.71875 -118.320312 C 77.519531 -118.320312 96.21875 -119.679688 103.359375 -120.019531 C 107.4375 -120.699219 116.277344 -129.878906 106.757812 -130.21875 C 104.71875 -130.21875 82.960938 -129.199219 73.097656 -129.199219 C 69.699219 -129.199219 58.140625 -129.199219 57.800781 -129.539062 C 55.078125 -133.277344 53.71875 -132.9375 49.640625 -134.640625 C 41.140625 -138.039062 35.019531 -131.578125 30.261719 -126.820312 C 23.800781 -119.679688 18.359375 -111.179688 13.261719 -103.019531 C 7.820312 -94.179688 3.398438 -84.660156 -1.699219 -75.480469 C -4.761719 -69.359375 -6.800781 -63.238281 -6.460938 -57.121094 L -6.800781 -54.058594 C -6.800781 -46.917969 -2.71875 -39.78125 2.039062 -38.078125 Z M 12.238281 -62.898438 C 11.558594 -63.917969 10.878906 -64.597656 10.878906 -64.941406 C 10.878906 -66.300781 11.21875 -67.320312 11.558594 -68.339844 C 19.71875 -84.660156 28.21875 -100.980469 41.820312 -113.898438 C 42.5 -114.578125 43.519531 -114.917969 44.539062 -115.257812 C 45.21875 -113.898438 46.238281 -112.539062 45.898438 -111.519531 C 44.878906 -107.777344 44.199219 -104.039062 42.5 -100.980469 C 35.359375 -87.71875 26.859375 -75.480469 15.980469 -64.941406 C 14.960938 -63.917969 13.601562 -63.578125 12.238281 -62.898438 Z M 12.238281 -62.898438 "/></g></g></g><g fill="#878d97" fill-opacity="1"><g transform="translate(296.11321, 348.749673)"><g><path d="M 62.558594 -35.019531 C 80.917969 -38.078125 92.140625 -49.300781 106.757812 -59.5 C 119.339844 -68 153 -92.140625 154.699219 -93.5 C 159.796875 -97.238281 163.199219 -105.058594 158.097656 -108.121094 C 156.738281 -108.800781 153 -106.078125 150.277344 -104.71875 C 128.859375 -93.5 110.5 -75.820312 88.738281 -64.941406 C 86.699219 -63.917969 80.917969 -62.21875 82.960938 -66.980469 C 84.320312 -70.039062 86.019531 -73.097656 87.378906 -76.160156 L 94.519531 -88.738281 L 102 -102.339844 C 103.699219 -106.078125 104.71875 -109.820312 106.417969 -112.539062 C 108.800781 -116.960938 111.859375 -121.039062 114.578125 -125.117188 C 115.597656 -126.480469 116.617188 -127.839844 116.960938 -129.539062 C 117.300781 -130.21875 117.300781 -130.558594 117.300781 -130.898438 C 116.960938 -132.257812 115.257812 -132.597656 114.238281 -132.9375 C 109.480469 -133.617188 102.679688 -135.660156 97.917969 -134.300781 C 93.839844 -132.9375 88.738281 -130.21875 85 -127.839844 C 70.71875 -119 56.441406 -110.5 43.519531 -99.621094 C 39.78125 -96.558594 35.699219 -93.839844 31.621094 -91.121094 C 31.28125 -90.78125 30.261719 -90.78125 29.578125 -90.78125 C 29.578125 -93.839844 27.878906 -93.839844 30.941406 -98.257812 C 38.078125 -108.460938 44.539062 -119 52.019531 -128.859375 C 56.097656 -134.640625 57.800781 -140.757812 53.039062 -144.160156 C 48.28125 -147.21875 45.898438 -147.21875 42.5 -143.820312 C 36.039062 -132.9375 29.917969 -121.71875 22.101562 -111.859375 C 14.621094 -102 6.800781 -92.480469 1.359375 -81.597656 C -2.039062 -75.140625 -6.460938 -69.019531 -9.519531 -62.21875 C -11.898438 -56.441406 -13.261719 -49.300781 -10.199219 -44.199219 C -9.179688 -42.5 -2.71875 -39.101562 2.378906 -42.839844 C 8.5 -47.601562 11.21875 -57.800781 15.980469 -64.257812 C 20.738281 -70.378906 27.539062 -74.460938 33.320312 -78.878906 C 47.941406 -90.097656 65.960938 -101.660156 81.257812 -111.519531 C 85.339844 -112.878906 88.398438 -110.839844 86.699219 -108.121094 C 72.078125 -82.960938 78.199219 -90.4375 57.800781 -52.359375 C 55.757812 -48.621094 57.121094 -36.039062 62.558594 -35.019531 Z M 62.558594 -35.019531 "/></g></g></g><g fill="#878d97" fill-opacity="1"><g transform="translate(429.391965, 348.749673)"><g><path d="M 62.558594 -35.019531 C 80.917969 -38.078125 92.140625 -49.300781 106.757812 -59.5 C 119.339844 -68 153 -92.140625 154.699219 -93.5 C 159.796875 -97.238281 163.199219 -105.058594 158.097656 -108.121094 C 156.738281 -108.800781 153 -106.078125 150.277344 -104.71875 C 128.859375 -93.5 110.5 -75.820312 88.738281 -64.941406 C 86.699219 -63.917969 80.917969 -62.21875 82.960938 -66.980469 C 84.320312 -70.039062 86.019531 -73.097656 87.378906 -76.160156 L 94.519531 -88.738281 L 102 -102.339844 C 103.699219 -106.078125 104.71875 -109.820312 106.417969 -112.539062 C 108.800781 -116.960938 111.859375 -121.039062 114.578125 -125.117188 C 115.597656 -126.480469 116.617188 -127.839844 116.960938 -129.539062 C 117.300781 -130.21875 117.300781 -130.558594 117.300781 -130.898438 C 116.960938 -132.257812 115.257812 -132.597656 114.238281 -132.9375 C 109.480469 -133.617188 102.679688 -135.660156 97.917969 -134.300781 C 93.839844 -132.9375 88.738281 -130.21875 85 -127.839844 C 70.71875 -119 56.441406 -110.5 43.519531 -99.621094 C 39.78125 -96.558594 35.699219 -93.839844 31.621094 -91.121094 C 31.28125 -90.78125 30.261719 -90.78125 29.578125 -90.78125 C 29.578125 -93.839844 27.878906 -93.839844 30.941406 -98.257812 C 38.078125 -108.460938 44.539062 -119 52.019531 -128.859375 C 56.097656 -134.640625 57.800781 -140.757812 53.039062 -144.160156 C 48.28125 -147.21875 45.898438 -147.21875 42.5 -143.820312 C 36.039062 -132.9375 29.917969 -121.71875 22.101562 -111.859375 C 14.621094 -102 6.800781 -92.480469 1.359375 -81.597656 C -2.039062 -75.140625 -6.460938 -69.019531 -9.519531 -62.21875 C -11.898438 -56.441406 -13.261719 -49.300781 -10.199219 -44.199219 C -9.179688 -42.5 -2.71875 -39.101562 2.378906 -42.839844 C 8.5 -47.601562 11.21875 -57.800781 15.980469 -64.257812 C 20.738281 -70.378906 27.539062 -74.460938 33.320312 -78.878906 C 47.941406 -90.097656 65.960938 -101.660156 81.257812 -111.519531 C 85.339844 -112.878906 88.398438 -110.839844 86.699219 -108.121094 C 72.078125 -82.960938 78.199219 -90.4375 57.800781 -52.359375 C 55.757812 -48.621094 57.121094 -36.039062 62.558594 -35.019531 Z M 62.558594 -35.019531 "/></g></g></g></svg>